<svg width="30" height="30" viewBox="0 0 30 30" fill="none" xmlns="http://www.w3.org/2000/svg">
<path d="M22.8125 17.5V13.4375H18.75V11.5625H22.8125V7.5H24.6875V11.5625H28.75V13.4375H24.6875V17.5H22.8125ZM11.25 14.9688C9.875 14.9688 8.75 14.5312 7.875 13.6562C7 12.7813 6.5625 11.6563 6.5625 10.2813C6.5625 8.90625 7 7.78125 7.875 6.90625C8.75 6.03125 9.875 5.59375 11.25 5.59375C12.625 5.59375 13.75 6.03125 14.625 6.90625C15.5 7.78125 15.9375 8.90625 15.9375 10.2813C15.9375 11.6563 15.5 12.7813 14.625 13.6562C13.75 14.5312 12.625 14.9688 11.25 14.9688ZM1.25 25V22.0625C1.25 21.3333 1.43229 20.6719 1.79688 20.0781C2.16146 19.4844 2.6875 19.0417 3.375 18.75C4.9375 18.0625 6.32812 17.5781 7.54688 17.2969C8.76562 17.0156 10 16.875 11.25 16.875C12.5 16.875 13.7292 17.0156 14.9375 17.2969C16.1458 17.5781 17.5312 18.0625 19.0938 18.75C19.7812 19.0625 20.3125 19.5104 20.6875 20.0938C21.0625 20.6771 21.25 21.3333 21.25 22.0625V25H1.25ZM3.125 23.125H19.375V22.0625C19.375 21.7292 19.2812 21.4115 19.0938 21.1094C18.9062 20.8073 18.6562 20.5833 18.3438 20.4375C16.8646 19.75 15.6146 19.2969 14.5938 19.0781C13.5729 18.8594 12.4583 18.75 11.25 18.75C10.0417 18.75 8.92188 18.8594 7.89062 19.0781C6.85938 19.2969 5.60417 19.75 4.125 20.4375C3.8125 20.5833 3.56771 20.8073 3.39062 21.1094C3.21354 21.4115 3.125 21.7292 3.125 22.0625V23.125ZM11.25 13.0938C12.0625 13.0938 12.7344 12.8281 13.2656 12.2969C13.7969 11.7656 14.0625 11.0938 14.0625 10.2813C14.0625 9.46875 13.7969 8.79688 13.2656 8.26563C12.7344 7.73438 12.0625 7.46875 11.25 7.46875C10.4375 7.46875 9.76562 7.73438 9.23438 8.26563C8.70312 8.79688 8.4375 9.46875 8.4375 10.2813C8.4375 11.0938 8.70312 11.7656 9.23438 12.2969C9.76562 12.8281 10.4375 13.0938 11.25 13.0938Z" fill="white"/>
</svg>
