<svg width="25" height="22" viewBox="0 0 25 22" fill="none" xmlns="http://www.w3.org/2000/svg">
<path d="M0.75 21.25V1.875C0.75 1.375 0.9375 0.9375 1.3125 0.5625C1.6875 0.1875 2.125 0 2.625 0H18.875C19.375 0 19.8125 0.1875 20.1875 0.5625C20.5625 0.9375 20.75 1.375 20.75 1.875V8.84375C20.5417 8.80208 20.3385 8.77604 20.1406 8.76562C19.9427 8.75521 19.7292 8.75 19.5 8.75H19.1875C19.0833 8.75 18.9792 8.76042 18.875 8.78125V1.875H2.625V16.7188L3.71875 15.625H12.0312C12.0104 15.7292 12 15.8281 12 15.9219V16.25C12 16.4792 12.0052 16.6927 12.0156 16.8906C12.026 17.0885 12.0521 17.2917 12.0937 17.5H4.5L0.75 21.25ZM5.75 6.875V5H15.75V6.875H5.75ZM5.75 12.1875V10.3125H12V12.1875H5.75ZM18.5625 20.9375V17.1875H14.8125V15.3125H18.5625V11.5625H20.4375V15.3125H24.1875V17.1875H20.4375V20.9375H18.5625Z" fill="white"/>
</svg>
