<svg width="23" height="20" viewBox="0 0 23 20" fill="none" xmlns="http://www.w3.org/2000/svg">
<path d="M10.9582 19.2123C9.9335 19.2123 9.12231 18.9486 8.52459 18.4212C7.92688 17.8938 7.62802 17.0933 7.62802 16.0197H9.56348C9.56348 16.5094 9.67259 16.8814 9.8908 17.1357C10.109 17.39 10.4648 17.5171 10.9582 17.5171C11.4705 17.5171 11.8358 17.4041 12.054 17.1781C12.2722 16.9521 12.3813 16.5659 12.3813 16.0197C12.3813 15.4735 12.2722 15.0732 12.054 14.8189C11.8358 14.5646 11.4705 14.4375 10.9582 14.4375H0V12.7423H10.9582C11.9828 12.7423 12.7608 13.006 13.2921 13.5334C13.8234 14.0608 14.0891 14.8896 14.0891 16.0197C14.0891 17.0933 13.8234 17.8938 13.2921 18.4212C12.7608 18.9486 11.9828 19.2123 10.9582 19.2123ZM0 7.68493V5.98973H15.5976C16.2997 5.98973 16.812 5.82492 17.1346 5.49529C17.4571 5.16567 17.6184 4.61473 17.6184 3.84247C17.6184 3.07021 17.4571 2.51926 17.1346 2.18964C16.812 1.86002 16.2997 1.69521 15.5976 1.69521C14.8765 1.69521 14.3547 1.88827 14.0321 2.2744C13.7096 2.66053 13.5483 3.14555 13.5483 3.72945H11.8405C11.8405 2.63699 12.1726 1.7423 12.8367 1.04538C13.5008 0.348459 14.4211 0 15.5976 0C16.7551 0 17.6659 0.334332 18.33 1.003C18.9941 1.67166 19.3262 2.61815 19.3262 3.84247C19.3262 5.06678 18.9941 6.01327 18.33 6.68194C17.6659 7.3506 16.7551 7.68493 15.5976 7.68493H0ZM19.127 17.0086V15.3134C19.7911 15.3134 20.2797 15.1297 20.5928 14.7624C20.9059 14.3951 21.0624 13.863 21.0624 13.1661C21.0624 12.4503 20.8869 11.9324 20.5359 11.6122C20.1848 11.292 19.6772 11.1319 19.0131 11.1319H0V9.43665H19.0131C20.1896 9.43665 21.1099 9.76627 21.774 10.4255C22.4381 11.0848 22.7702 11.9983 22.7702 13.1661C22.7702 14.3716 22.4571 15.3134 21.8309 15.9914C21.2047 16.6695 20.3034 17.0086 19.127 17.0086Z" fill="black"/>
</svg>
