<svg width="16" height="20" viewBox="0 0 16 20" fill="none" xmlns="http://www.w3.org/2000/svg">
<path d="M7.25 11.3H8.75V6H7.25V11.3ZM8 14C8.23333 14 8.42917 13.9208 8.5875 13.7625C8.74583 13.6042 8.825 13.4083 8.825 13.175C8.825 12.9417 8.74583 12.7458 8.5875 12.5875C8.42917 12.4292 8.23333 12.35 8 12.35C7.76667 12.35 7.57083 12.4292 7.4125 12.5875C7.25417 12.7458 7.175 12.9417 7.175 13.175C7.175 13.4083 7.25417 13.6042 7.4125 13.7625C7.57083 13.9208 7.76667 14 8 14ZM0 17V15.5H2.1V7.85C2.1 6.45 2.5125 5.20417 3.3375 4.1125C4.1625 3.02083 5.25 2.33333 6.6 2.05V1.325C6.6 0.941667 6.7375 0.625 7.0125 0.375C7.2875 0.125 7.61667 0 8 0C8.38333 0 8.7125 0.125 8.9875 0.375C9.2625 0.625 9.4 0.941667 9.4 1.325V2.05C10.75 2.33333 11.8417 3.02083 12.675 4.1125C13.5083 5.20417 13.925 6.45 13.925 7.85V15.5H16V17H0ZM8 20C7.46667 20 7 19.8042 6.6 19.4125C6.2 19.0208 6 18.55 6 18H10C10 18.55 9.80417 19.0208 9.4125 19.4125C9.02083 19.8042 8.55 20 8 20ZM3.6 15.5H12.425V7.85C12.425 6.61667 12 5.56667 11.15 4.7C10.3 3.83333 9.25833 3.4 8.025 3.4C6.79167 3.4 5.74583 3.83333 4.8875 4.7C4.02917 5.56667 3.6 6.61667 3.6 7.85V15.5Z" fill="#FF0000"/>
</svg>
