<svg width="20" height="20" viewBox="0 0 20 20" fill="none" xmlns="http://www.w3.org/2000/svg">
<path d="M2.1197 16.9576V15.4613H4.21446V7.60599C4.21446 7.10723 4.28512 6.62095 4.42643 6.14713C4.56775 5.67332 4.76309 5.22028 5.01247 4.78803L6.13466 5.91022C6.00166 6.19285 5.89776 6.47132 5.82294 6.74564C5.74813 7.01995 5.71072 7.30673 5.71072 7.60599V15.4613H13.591L0 1.87032L1.04738 0.822943L19.1521 18.9526L18.1047 20L15.0623 16.9576H2.1197ZM16.01 13.6658L14.5137 12.1696V7.83042C14.5137 6.58354 14.0939 5.532 13.2544 4.67581C12.4148 3.81962 11.3799 3.39152 10.1496 3.39152C9.56775 3.39152 9.01081 3.48712 8.4788 3.6783C7.9468 3.86949 7.45636 4.19784 7.00748 4.66334L5.93516 3.59102C6.38404 3.15877 6.83707 2.82211 7.29426 2.58105C7.75145 2.33998 8.22111 2.16126 8.70324 2.04489V1.39651C8.70324 1.01413 8.8404 0.685785 9.11471 0.411471C9.38903 0.137157 9.71737 0 10.0998 0C10.4821 0 10.8105 0.137157 11.0848 0.411471C11.3591 0.685785 11.4963 1.01413 11.4963 1.39651V2.04489C12.793 2.32751 13.8695 3.00914 14.7257 4.08978C15.5819 5.17041 16.01 6.41729 16.01 7.83042V13.6658ZM10.0998 19.9501C9.55112 19.9501 9.08146 19.7548 8.69077 19.3641C8.30008 18.9734 8.10474 18.5037 8.10474 17.9551H12.0948C12.0948 18.5037 11.8994 18.9734 11.5087 19.3641C11.118 19.7548 10.6484 19.9501 10.0998 19.9501Z" fill="black"/>
</svg>
