<svg width="18" height="20" viewBox="0 0 18 20" fill="none" xmlns="http://www.w3.org/2000/svg">
<path d="M0 7.825C0 6.475 0.283333 5.19583 0.85 3.9875C1.41667 2.77917 2.225 1.75 3.275 0.9L4.3 2.025C3.41667 2.74167 2.72917 3.60417 2.2375 4.6125C1.74583 5.62083 1.5 6.69167 1.5 7.825H0ZM16.325 7.825C16.325 6.69167 16.0917 5.62083 15.625 4.6125C15.1583 3.60417 14.4833 2.74167 13.6 2.025L14.625 0.9C15.6583 1.76667 16.45 2.8 17 4C17.55 5.2 17.825 6.475 17.825 7.825H16.325ZM0.9 17V15.5H3V7.85C3 6.45 3.4125 5.20417 4.2375 4.1125C5.0625 3.02083 6.15 2.33333 7.5 2.05V1.325C7.5 0.941667 7.6375 0.625 7.9125 0.375C8.1875 0.125 8.51667 0 8.9 0C9.28333 0 9.6125 0.125 9.8875 0.375C10.1625 0.625 10.3 0.941667 10.3 1.325V2.05C11.65 2.33333 12.7417 3.02083 13.575 4.1125C14.4083 5.20417 14.825 6.45 14.825 7.85V15.5H16.9V17H0.9ZM8.9 20C8.36667 20 7.9 19.8042 7.5 19.4125C7.1 19.0208 6.9 18.55 6.9 18H10.9C10.9 18.55 10.7042 19.0208 10.3125 19.4125C9.92083 19.8042 9.45 20 8.9 20ZM4.5 15.5H13.325V7.85C13.325 6.61667 12.9 5.56667 12.05 4.7C11.2 3.83333 10.1583 3.4 8.925 3.4C7.69167 3.4 6.64583 3.83333 5.7875 4.7C4.92917 5.56667 4.5 6.61667 4.5 7.85V15.5Z" fill="#FFA500"/>
</svg>
