<svg width="30" height="15" viewBox="0 0 30 15" fill="none" xmlns="http://www.w3.org/2000/svg">
<rect x="1.5" y="2.25018" width="16.5" height="10.5" fill="black"/>
<path d="M26.475 0C26.8 0 27.0687 0.10625 27.2812 0.318749C27.4938 0.531249 27.6 0.8 27.6 1.125V4.5H30V10.5H27.6V13.875C27.6 14.2 27.4938 14.4687 27.2812 14.6812C27.0687 14.8937 26.8 15 26.475 15L1.125 15C0.799999 15 0.53125 14.8937 0.318748 14.6812C0.106249 14.4687 0 14.2 0 13.875V1.125C0 0.8 0.106249 0.531249 0.318748 0.318749C0.53125 0.10625 0.799999 0 1.125 0L26.475 0ZM25.35 2.25L2.25 2.25V12.75L25.35 12.75V2.25Z" fill="black"/>
</svg>
