<svg width="16" height="14" viewBox="0 0 16 14" fill="none" xmlns="http://www.w3.org/2000/svg">
<path d="M8 9.6C7.56 9.6 7.18333 9.44333 6.87 9.13C6.55667 8.81667 6.4 8.44 6.4 8C6.4 7.56 6.55667 7.18333 6.87 6.87C7.18333 6.55667 7.56 6.4 8 6.4C8.44 6.4 8.81667 6.55667 9.13 6.87C9.44333 7.18333 9.6 7.56 9.6 8C9.6 8.44 9.44333 8.81667 9.13 9.13C8.81667 9.44333 8.44 9.6 8 9.6ZM4.74 11.54C4.27333 11.1 3.9 10.5767 3.62 9.97C3.34 9.36333 3.2 8.70667 3.2 8C3.2 6.66667 3.66667 5.53333 4.6 4.6C5.53333 3.66667 6.66667 3.2 8 3.2C9.33333 3.2 10.4667 3.66667 11.4 4.6C12.3333 5.53333 12.8 6.66667 12.8 8C12.8 8.70667 12.66 9.36333 12.38 9.97C12.1 10.5767 11.7267 11.1 11.26 11.54L10.4 10.68C10.7733 10.3467 11.0667 9.95333 11.28 9.5C11.4933 9.04667 11.6 8.54667 11.6 8C11.6 7 11.25 6.15 10.55 5.45C9.85 4.75 9 4.4 8 4.4C7 4.4 6.15 4.75 5.45 5.45C4.75 6.15 4.4 7 4.4 8C4.4 8.54667 4.50667 9.04667 4.72 9.5C4.93333 9.95333 5.22667 10.3467 5.6 10.68L4.74 11.54ZM2.48 13.8C1.72 13.0667 1.11667 12.2033 0.67 11.21C0.223333 10.2167 0 9.14667 0 8C0 6.89333 0.21 5.85333 0.63 4.88C1.05 3.90667 1.62 3.06 2.34 2.34C3.06 1.62 3.90667 1.05 4.88 0.63C5.85333 0.21 6.89333 0 8 0C9.10667 0 10.1467 0.21 11.12 0.63C12.0933 1.05 12.94 1.62 13.66 2.34C14.38 3.06 14.95 3.90667 15.37 4.88C15.79 5.85333 16 6.89333 16 8C16 9.14667 15.7767 10.2167 15.33 11.21C14.8833 12.2033 14.28 13.0667 13.52 13.8L12.66 12.94C13.3267 12.3133 13.85 11.58 14.23 10.74C14.61 9.9 14.8 8.98667 14.8 8C14.8 6.10667 14.14 4.5 12.82 3.18C11.5 1.86 9.89333 1.2 8 1.2C6.10667 1.2 4.5 1.86 3.18 3.18C1.86 4.5 1.2 6.10667 1.2 8C1.2 8.98667 1.39 9.9 1.77 10.74C2.15 11.58 2.67333 12.3133 3.34 12.94L2.48 13.8Z" fill="black"/>
</svg>
