<svg width="24" height="24" viewBox="0 0 24 24" fill="none" xmlns="http://www.w3.org/2000/svg">
<path d="M9.89309 16.399C9.48186 16.399 9.14844 16.7324 9.14844 17.1436V18.9258C9.14844 19.337 9.48186 19.6704 9.89309 19.6704C10.3043 19.6704 10.6378 19.337 10.6378 18.9258V17.1436C10.6378 16.7324 10.3044 16.399 9.89309 16.399Z" fill="black"/>
<path d="M14.1067 16.399C13.6955 16.399 13.3621 16.7324 13.3621 17.1436V18.9258C13.3621 19.337 13.6955 19.6704 14.1067 19.6704C14.518 19.6704 14.8514 19.337 14.8514 18.9258V17.1436C14.8514 16.7324 14.518 16.399 14.1067 16.399Z" fill="black"/>
<path d="M24 7.20358C24 6.79235 23.6666 6.45893 23.2553 6.45893H18.472C18.1407 5.86244 17.7244 5.30843 17.2286 4.81259C17.2109 4.79491 17.1928 4.77804 17.175 4.76055V2.07119C17.175 1.65996 16.8416 1.32654 16.4303 1.32654C16.0191 1.32654 15.6857 1.65996 15.6857 2.07119V3.62604C13.3853 2.30009 10.5576 2.34335 8.31431 3.6206V2.07119C8.31431 1.65996 7.98089 1.32654 7.56966 1.32654C7.15842 1.32654 6.825 1.65996 6.825 2.07119V4.74579C6.30741 5.25452 5.87236 5.83643 5.52952 6.45902H0.744656C0.333422 6.45898 0 6.7924 0 7.20363C0 9.56824 2.38177 11.2181 4.60542 10.3578V14.0563C3.46959 14.7976 2.78105 16.0528 2.78105 17.4337V18.6356C2.78105 20.8621 4.59234 22.6734 6.81886 22.6734H17.1812C19.4077 22.6734 21.219 20.8621 21.219 18.6356V17.4337C21.219 16.0526 20.5302 14.7973 19.3946 14.0562V10.3578C21.6203 11.2189 24 9.56529 24 7.20358ZM12.0104 4.13566C11.5245 6.82498 9.05494 8.7386 6.29906 8.49851C6.99314 5.92216 9.33806 4.13257 12.0104 4.13566ZM6.09473 10.0412C6.09473 10.0191 6.09525 9.99696 6.09548 9.97483C9.6772 10.3264 12.8992 7.83124 13.4894 4.31998C15.9806 4.96343 17.9053 7.25651 17.9053 10.0412V13.4602C17.0507 13.3058 6.45623 13.3946 6.09473 13.4602V10.0412ZM1.64189 7.94824H4.90608C4.85456 8.12332 4.80647 8.31302 4.76813 8.49298C3.83916 9.49371 2.18231 9.20688 1.64189 7.94824ZM19.7296 17.4337V18.6356H19.7296C19.7296 20.0409 18.5865 21.1841 17.1811 21.1841H6.81881C5.41355 21.1841 4.27031 20.0409 4.27031 18.6356V17.4337C4.27031 16.0023 5.42953 14.8852 6.81881 14.8852H17.1811C18.5677 14.8853 19.7296 15.9998 19.7296 17.4337ZM19.2328 8.49396C19.1939 8.30998 19.148 8.12791 19.0952 7.94824H22.3581C21.8172 9.20801 20.161 9.49249 19.2328 8.49396Z" fill="black"/>
<path d="M8.43356 12.2617C8.97761 12.2617 9.41864 11.8207 9.41864 11.2766C9.41864 10.7326 8.97761 10.2916 8.43356 10.2916C7.88952 10.2916 7.44849 10.7326 7.44849 11.2766C7.44849 11.8207 7.88952 12.2617 8.43356 12.2617Z" fill="black"/>
<path d="M15.5967 12.2617C16.1407 12.2617 16.5817 11.8207 16.5817 11.2766C16.5817 10.7326 16.1407 10.2916 15.5967 10.2916C15.0526 10.2916 14.6116 10.7326 14.6116 11.2766C14.6116 11.8207 15.0526 12.2617 15.5967 12.2617Z" fill="black"/>
</svg>
