<svg width="33" height="24" viewBox="0 0 33 24" fill="none" xmlns="http://www.w3.org/2000/svg">
<path d="M9.89309 16.399C9.48186 16.399 9.14844 16.7324 9.14844 17.1436V18.9258C9.14844 19.337 9.48186 19.6704 9.89309 19.6704C10.3043 19.6704 10.6378 19.337 10.6378 18.9258V17.1436C10.6378 16.7324 10.3044 16.399 9.89309 16.399Z" fill="black"/>
<path d="M14.1067 16.399C13.6955 16.399 13.3621 16.7324 13.3621 17.1436V18.9258C13.3621 19.337 13.6955 19.6704 14.1067 19.6704C14.518 19.6704 14.8514 19.337 14.8514 18.9258V17.1436C14.8514 16.7324 14.518 16.399 14.1067 16.399Z" fill="black"/>
<path d="M24 7.20362C24 6.79238 23.6666 6.45896 23.2553 6.45896H18.472C18.1407 5.86247 17.7244 5.30846 17.2286 4.81262C17.2109 4.79494 17.1928 4.77807 17.175 4.76058V2.07122C17.175 1.65999 16.8416 1.32657 16.4303 1.32657C16.0191 1.32657 15.6857 1.65999 15.6857 2.07122V3.62607C13.3853 2.30012 10.5576 2.34338 8.31431 3.62063V2.07122C8.31431 1.65999 7.98089 1.32657 7.56966 1.32657C7.15842 1.32657 6.825 1.65999 6.825 2.07122V4.74582C6.30741 5.25455 5.87236 5.83646 5.52952 6.45905H0.744656C0.333422 6.45901 0 6.79243 0 7.20366C0 9.56827 2.38177 11.2181 4.60542 10.3578V14.0563C3.46959 14.7976 2.78105 16.0528 2.78105 17.4337V18.6357C2.78105 20.8621 4.59234 22.6734 6.81886 22.6734H17.1812C19.4077 22.6734 21.219 20.8621 21.219 18.6357V17.4337C21.219 16.0527 20.5302 14.7974 19.3946 14.0563V10.3578C21.6203 11.2189 24 9.56532 24 7.20362ZM12.0104 4.13569C11.5245 6.82501 9.05494 8.73863 6.29906 8.49854C6.99314 5.92219 9.33806 4.1326 12.0104 4.13569ZM6.09473 10.0412C6.09473 10.0191 6.09525 9.99699 6.09548 9.97487C9.6772 10.3265 12.8992 7.83127 13.4894 4.32001C15.9806 4.96346 17.9053 7.25654 17.9053 10.0412V13.4602C17.0507 13.3058 6.45623 13.3947 6.09473 13.4602V10.0412ZM1.64189 7.94827H4.90608C4.85456 8.12335 4.80647 8.31305 4.76813 8.49301C3.83916 9.49374 2.18231 9.20691 1.64189 7.94827ZM19.7296 17.4337V18.6357H19.7296C19.7296 20.0409 18.5865 21.1841 17.1811 21.1841H6.81881C5.41355 21.1841 4.27031 20.0409 4.27031 18.6357V17.4337C4.27031 16.0023 5.42953 14.8853 6.81881 14.8853H17.1811C18.5677 14.8853 19.7296 15.9998 19.7296 17.4337ZM19.2328 8.49399C19.1939 8.31001 19.148 8.12794 19.0952 7.94827H22.3581C21.8172 9.20804 20.161 9.49252 19.2328 8.49399Z" fill="black"/>
<path d="M8.43356 12.2618C8.97761 12.2618 9.41864 11.8207 9.41864 11.2767C9.41864 10.7326 8.97761 10.2916 8.43356 10.2916C7.88952 10.2916 7.44849 10.7326 7.44849 11.2767C7.44849 11.8207 7.88952 12.2618 8.43356 12.2618Z" fill="black"/>
<path d="M15.5967 12.2618C16.1407 12.2618 16.5817 11.8207 16.5817 11.2767C16.5817 10.7326 16.1407 10.2916 15.5967 10.2916C15.0526 10.2916 14.6116 10.7326 14.6116 11.2767C14.6116 11.8207 15.0526 12.2618 15.5967 12.2618Z" fill="black"/>
<path d="M26.45 22.975C25.8166 22.9083 25.2291 22.7333 24.6875 22.45C24.1458 22.1667 23.677 21.8 23.2812 21.35C22.8854 20.9 22.575 20.3875 22.35 19.8125C22.125 19.2375 22.0125 18.6292 22.0125 17.9875C22.0125 16.6958 22.4354 15.575 23.2812 14.625C24.127 13.675 25.1875 13.1333 26.4625 13V13.75C25.3958 13.9083 24.5125 14.3875 23.8125 15.1875C23.1125 15.9875 22.7625 16.9208 22.7625 17.9875C22.7625 19.0542 23.1104 19.9875 23.8062 20.7875C24.502 21.5875 25.3833 22.0667 26.45 22.225V22.975ZM27 20.5L24.5 18L25.0375 17.4625L26.625 19.05V15.5H27.375V19.05L28.9625 17.4625L29.5 18L27 20.5ZM27.55 22.975V22.225C27.9333 22.175 28.302 22.0771 28.6562 21.9312C29.0104 21.7854 29.3375 21.5917 29.6375 21.35L30.1875 21.9C29.8041 22.1917 29.3895 22.4333 28.9437 22.625C28.4979 22.8167 28.0333 22.9333 27.55 22.975ZM29.65 14.6375C29.3333 14.4125 29 14.2229 28.65 14.0687C28.3 13.9146 27.9333 13.8083 27.55 13.75V13C28.0333 13.0583 28.4958 13.1812 28.9375 13.3687C29.3791 13.5562 29.7958 13.7958 30.1875 14.0875L29.65 14.6375ZM30.9 21.125L30.3625 20.6C30.6041 20.2917 30.7958 19.9604 30.9375 19.6062C31.0791 19.2521 31.175 18.8833 31.225 18.5H31.9875C31.9291 18.9833 31.8083 19.4479 31.625 19.8938C31.4416 20.3396 31.2 20.75 30.9 21.125ZM31.225 17.475C31.175 17.0917 31.0791 16.7208 30.9375 16.3625C30.7958 16.0042 30.6041 15.675 30.3625 15.375L30.95 14.8625C31.2416 15.2458 31.475 15.6583 31.65 16.1C31.825 16.5417 31.9375 17 31.9875 17.475H31.225Z" fill="black"/>
</svg>
