<svg width="35" height="35" viewBox="0 0 35 35" fill="none" xmlns="http://www.w3.org/2000/svg">
<path d="M9.96095 31.2813C9.3761 31.2813 8.87898 31.0668 8.46958 30.6379C8.06018 30.209 7.85549 29.6882 7.85549 29.0755V8.12109H6.41675V5.91536H13.0139V4.8125H22.2779V5.91536H28.8751V8.12109H27.4363V29.0755C27.4363 29.6637 27.2258 30.1784 26.8047 30.6195C26.3836 31.0607 25.8923 31.2813 25.3309 31.2813H9.96095ZM25.3309 8.12109H9.96095V29.0755H25.3309V8.12109ZM13.6806 25.914H15.7861V11.2459H13.6806V25.914ZM19.5057 25.914H21.6112V11.2459H19.5057V25.914ZM9.96095 8.12109V29.0755V8.12109Z" fill="white"/>
</svg>
