<svg width="20" height="20" viewBox="0 0 20 20" fill="none" xmlns="http://www.w3.org/2000/svg">
<path d="M10 19.1666L7.5 16.6666H3.75C3.41667 16.6666 3.125 16.5382 2.875 16.2812C2.625 16.0243 2.5 15.7361 2.5 15.4166V2.91663C2.5 2.58329 2.625 2.29163 2.875 2.04163C3.125 1.79163 3.41667 1.66663 3.75 1.66663H16.25C16.5694 1.66663 16.8576 1.79163 17.1146 2.04163C17.3715 2.29163 17.5 2.58329 17.5 2.91663V15.4166C17.5 15.7361 17.3715 16.0243 17.1146 16.2812C16.8576 16.5382 16.5694 16.6666 16.25 16.6666H12.5L10 19.1666ZM3.75 15.4166H8L10 17.4166L12 15.4166H16.25V2.91663H3.75V15.4166ZM3.75 2.91663V15.4166V2.91663ZM9.9375 13.7916C10.1597 13.7916 10.3472 13.7152 10.5 13.5625C10.6528 13.4097 10.7292 13.2222 10.7292 13C10.7292 12.7777 10.6528 12.5902 10.5 12.4375C10.3472 12.2847 10.1597 12.2083 9.9375 12.2083C9.71528 12.2083 9.52778 12.2847 9.375 12.4375C9.22222 12.5902 9.14583 12.7777 9.14583 13C9.14583 13.2222 9.22222 13.4097 9.375 13.5625C9.52778 13.7152 9.71528 13.7916 9.9375 13.7916ZM10.4375 10.7083C10.4375 10.2777 10.5069 9.92704 10.6458 9.65621C10.7847 9.38538 11.0278 9.07635 11.375 8.72913C11.8333 8.27079 12.1528 7.86454 12.3333 7.51038C12.5139 7.15621 12.6042 6.78468 12.6042 6.39579C12.6042 5.65968 12.3681 5.07635 11.8958 4.64579C11.4236 4.21524 10.7847 3.99996 9.97917 3.99996C9.27083 3.99996 8.66319 4.1701 8.15625 4.51038C7.64931 4.85065 7.27778 5.3194 7.04167 5.91663L8.14583 6.37496C8.34028 5.98607 8.59028 5.69093 8.89583 5.48954C9.20139 5.28815 9.5625 5.18746 9.97917 5.18746C10.4236 5.18746 10.7743 5.29857 11.0312 5.52079C11.2882 5.74301 11.4167 6.04857 11.4167 6.43746C11.4167 6.71524 11.3403 6.9826 11.1875 7.23954C11.0347 7.49649 10.7778 7.79857 10.4167 8.14579C9.90278 8.6319 9.57986 9.04857 9.44792 9.39579C9.31597 9.74301 9.25 10.1805 9.25 10.7083H10.4375Z" fill="black"/>
</svg>
