<svg width="23" height="21" viewBox="0 0 23 21" fill="none" xmlns="http://www.w3.org/2000/svg">
<path d="M11.3851 20.5666L10.2181 19.5284C8.20676 17.714 6.54643 16.1474 5.23714 14.8287C3.92786 13.51 2.88422 12.3315 2.10624 11.2934C1.32826 10.2552 0.782725 9.31529 0.469635 8.47355C0.156545 7.63181 0 6.78071 0 5.92026C0 4.23677 0.573999 2.82919 1.722 1.69752C2.86999 0.565838 4.28839 0 5.97718 0C7.05876 0 8.0597 0.252523 8.98 0.757569C9.90029 1.26261 10.702 1.99213 11.3851 2.9461C12.1821 1.93601 13.0264 1.19247 13.9183 0.715482C14.8101 0.238494 15.7684 0 16.793 0C18.4818 0 19.9002 0.565838 21.0482 1.69752C22.1962 2.82919 22.7702 4.23677 22.7702 5.92026C22.7702 6.78071 22.6136 7.63181 22.3006 8.47355C21.9875 9.31529 21.4419 10.2552 20.664 11.2934C19.886 12.3315 18.8423 13.51 17.5331 14.8287C16.2238 16.1474 14.5634 17.714 12.5521 19.5284L11.3851 20.5666ZM11.3851 18.35C13.3016 16.6104 14.8813 15.1186 16.1241 13.8747C17.367 12.6308 18.3537 11.5412 19.0843 10.606C19.8148 9.6707 20.3271 8.83831 20.6213 8.10879C20.9154 7.37928 21.0624 6.64977 21.0624 5.92026C21.0624 4.6857 20.664 3.67094 19.867 2.87596C19.07 2.08098 18.0454 1.68349 16.793 1.68349C15.8253 1.68349 14.924 1.9781 14.0891 2.56732C13.2542 3.15654 12.5805 3.98425 12.0682 5.05046H10.6735C10.1802 4.00296 9.51604 3.17992 8.68114 2.58135C7.84623 1.98277 6.94491 1.68349 5.97718 1.68349C4.72482 1.68349 3.70016 2.08098 2.9032 2.87596C2.10624 3.67094 1.70776 4.6857 1.70776 5.92026C1.70776 6.64977 1.85482 7.38396 2.14894 8.12282C2.44305 8.86169 2.95538 9.70343 3.68593 10.6481C4.41647 11.5927 5.40792 12.6823 6.66028 13.9168C7.91264 15.1514 9.48758 16.6291 11.3851 18.35Z" fill="black"/>
</svg>
