<svg width="37" height="24" viewBox="0 0 37 24" fill="none" xmlns="http://www.w3.org/2000/svg">
<path d="M13.8931 16.399C13.4819 16.399 13.1484 16.7324 13.1484 17.1436V18.9258C13.1484 19.337 13.4819 19.6704 13.8931 19.6704C14.3043 19.6704 14.6378 19.337 14.6378 18.9258V17.1436C14.6378 16.7324 14.3044 16.399 13.8931 16.399Z" fill="black"/>
<path d="M18.1067 16.399C17.6955 16.399 17.3621 16.7324 17.3621 17.1436V18.9258C17.3621 19.337 17.6955 19.6704 18.1067 19.6704C18.518 19.6704 18.8514 19.337 18.8514 18.9258V17.1436C18.8514 16.7324 18.518 16.399 18.1067 16.399Z" fill="black"/>
<path d="M28 7.20362C28 6.79238 27.6666 6.45896 27.2553 6.45896H22.472C22.1407 5.86247 21.7244 5.30846 21.2286 4.81262C21.2109 4.79494 21.1928 4.77807 21.175 4.76058V2.07122C21.175 1.65999 20.8416 1.32657 20.4303 1.32657C20.0191 1.32657 19.6857 1.65999 19.6857 2.07122V3.62607C17.3853 2.30012 14.5576 2.34338 12.3143 3.62063V2.07122C12.3143 1.65999 11.9809 1.32657 11.5697 1.32657C11.1584 1.32657 10.825 1.65999 10.825 2.07122V4.74582C10.3074 5.25455 9.87236 5.83646 9.52952 6.45905H4.74466C4.33342 6.45901 4 6.79243 4 7.20366C4 9.56827 6.38177 11.2181 8.60542 10.3578V14.0563C7.46959 14.7976 6.78105 16.0528 6.78105 17.4337V18.6357C6.78105 20.8621 8.59234 22.6734 10.8189 22.6734H21.1812C23.4077 22.6734 25.219 20.8621 25.219 18.6357V17.4337C25.219 16.0527 24.5302 14.7974 23.3946 14.0563V10.3578C25.6203 11.2189 28 9.56532 28 7.20362ZM16.0104 4.13569C15.5245 6.82501 13.0549 8.73863 10.2991 8.49854C10.9931 5.92219 13.3381 4.1326 16.0104 4.13569ZM10.0947 10.0412C10.0947 10.0191 10.0953 9.99699 10.0955 9.97487C13.6772 10.3265 16.8992 7.83127 17.4894 4.32001C19.9806 4.96346 21.9053 7.25654 21.9053 10.0412V13.4602C21.0507 13.3058 10.4562 13.3947 10.0947 13.4602V10.0412ZM5.64189 7.94827H8.90608C8.85456 8.12335 8.80647 8.31305 8.76813 8.49301C7.83916 9.49374 6.18231 9.20691 5.64189 7.94827ZM23.7296 17.4337V18.6357H23.7296C23.7296 20.0409 22.5865 21.1841 21.1811 21.1841H10.8188C9.41355 21.1841 8.27031 20.0409 8.27031 18.6357V17.4337C8.27031 16.0023 9.42953 14.8853 10.8188 14.8853H21.1811C22.5677 14.8853 23.7296 15.9998 23.7296 17.4337ZM23.2328 8.49399C23.1939 8.31001 23.148 8.12794 23.0952 7.94827H26.3581C25.8172 9.20804 24.161 9.49252 23.2328 8.49399Z" fill="black"/>
<path d="M12.4336 12.2618C12.9776 12.2618 13.4186 11.8207 13.4186 11.2767C13.4186 10.7326 12.9776 10.2916 12.4336 10.2916C11.8895 10.2916 11.4485 10.7326 11.4485 11.2767C11.4485 11.8207 11.8895 12.2618 12.4336 12.2618Z" fill="black"/>
<path d="M19.5967 12.2618C20.1407 12.2618 20.5817 11.8207 20.5817 11.2767C20.5817 10.7326 20.1407 10.2916 19.5967 10.2916C19.0526 10.2916 18.6116 10.7326 18.6116 11.2767C18.6116 11.8207 19.0526 12.2618 19.5967 12.2618Z" fill="black"/>
<g clip-path="url(#clip0_1219_4286)">
<path d="M25.5344 8.5162C25.3459 8.5162 25.1931 8.66902 25.1931 8.85751V9.67432C25.1931 9.8628 25.3459 10.0156 25.5344 10.0156C25.7229 10.0156 25.8757 9.8628 25.8757 9.67432V8.85751C25.8757 8.66902 25.7229 8.5162 25.5344 8.5162Z" fill="black"/>
<path d="M27.4656 8.5162C27.2771 8.5162 27.1243 8.66902 27.1243 8.85751V9.67432C27.1243 9.8628 27.2771 10.0156 27.4656 10.0156C27.6541 10.0156 27.8069 9.8628 27.8069 9.67432V8.85751C27.8069 8.66902 27.6541 8.5162 27.4656 8.5162Z" fill="black"/>
<path d="M32 4.30165C32 4.11317 31.8472 3.96035 31.6587 3.96035H29.4663C29.3145 3.68696 29.1237 3.43303 28.8964 3.20577C28.8883 3.19767 28.88 3.18994 28.8719 3.18193V1.9493C28.8719 1.76082 28.7191 1.608 28.5306 1.608C28.3421 1.608 28.1893 1.76082 28.1893 1.9493V2.66194C27.1349 2.05421 25.8389 2.07404 24.8107 2.65945V1.9493C24.8107 1.76082 24.6579 1.608 24.4694 1.608C24.2809 1.608 24.1281 1.76082 24.1281 1.9493V3.17516C23.8909 3.40833 23.6915 3.67503 23.5344 3.96039H21.3413C21.1528 3.96037 21 4.11319 21 4.30167C21 5.38545 22.0916 6.14163 23.1108 5.74731V7.44247C22.5902 7.78222 22.2746 8.35753 22.2746 8.99044V9.54134C22.2746 10.5618 23.1048 11.392 24.1253 11.392H28.8747C29.8952 11.392 30.7254 10.5618 30.7254 9.54134V8.99044C30.7254 8.35747 30.4097 7.78212 29.8892 7.44245V5.74731C30.9093 6.14198 32 5.3841 32 4.30165ZM26.5047 2.89552C26.2821 4.12812 25.1502 5.0052 23.8871 4.89515C24.2052 3.71433 25.2799 2.8941 26.5047 2.89552ZM23.7934 5.60223C23.7934 5.59209 23.7937 5.58194 23.7938 5.5718C25.4354 5.73296 26.9121 4.58932 27.1826 2.97999C28.3244 3.27491 29.2066 4.3259 29.2066 5.60223V7.16925C28.8149 7.09848 23.9591 7.13922 23.7934 7.16925V5.60223ZM21.7525 4.64295H23.2486C23.225 4.72319 23.203 4.81014 23.1854 4.89262C22.7596 5.35129 22.0002 5.21983 21.7525 4.64295ZM30.0427 8.99044V9.54134H30.0428C30.0428 10.1854 29.5188 10.7094 28.8747 10.7094H24.1253C23.4812 10.7094 22.9572 10.1854 22.9572 9.54134V8.99044C22.9572 8.33439 23.4885 7.8224 24.1253 7.8224H28.8747C29.5102 7.82242 30.0427 8.33323 30.0427 8.99044ZM29.815 4.89307C29.7972 4.80874 29.7762 4.7253 29.752 4.64295H31.2475C30.9996 5.22034 30.2405 5.35073 29.815 4.89307Z" fill="black"/>
<path d="M24.8653 6.61997C25.1147 6.61997 25.3168 6.41783 25.3168 6.16847C25.3168 5.91912 25.1147 5.71698 24.8653 5.71698C24.616 5.71698 24.4138 5.91912 24.4138 6.16847C24.4138 6.41783 24.616 6.61997 24.8653 6.61997Z" fill="black"/>
<path d="M28.1485 6.61997C28.3979 6.61997 28.6 6.41783 28.6 6.16847C28.6 5.91912 28.3979 5.71698 28.1485 5.71698C27.8992 5.71698 27.697 5.91912 27.697 6.16847C27.697 6.41783 27.8992 6.61997 28.1485 6.61997Z" fill="black"/>
</g>
<g clip-path="url(#clip1_1219_4286)">
<path d="M4.53442 8.5162C4.34593 8.5162 4.19312 8.66902 4.19312 8.85751V9.67432C4.19312 9.8628 4.34593 10.0156 4.53442 10.0156C4.7229 10.0156 4.87572 9.8628 4.87572 9.67432V8.85751C4.87574 8.66902 4.72292 8.5162 4.53442 8.5162Z" fill="black"/>
<path d="M6.46557 8.5162C6.27709 8.5162 6.12427 8.66902 6.12427 8.85751V9.67432C6.12427 9.8628 6.27709 10.0156 6.46557 10.0156C6.65405 10.0156 6.80687 9.8628 6.80687 9.67432V8.85751C6.80689 8.66902 6.65407 8.5162 6.46557 8.5162Z" fill="black"/>
<path d="M11 4.30165C11 4.11317 10.8472 3.96035 10.6587 3.96035H8.46635C8.3145 3.68696 8.12367 3.43303 7.89643 3.20577C7.88833 3.19767 7.88002 3.18994 7.87187 3.18193V1.9493C7.87187 1.76082 7.71906 1.608 7.53057 1.608C7.34209 1.608 7.18927 1.76082 7.18927 1.9493V2.66194C6.13493 2.05421 4.83888 2.07404 3.81073 2.65945V1.9493C3.81073 1.76082 3.65791 1.608 3.46943 1.608C3.28094 1.608 3.12813 1.76082 3.12813 1.9493V3.17516C2.89089 3.40833 2.6915 3.67503 2.53436 3.96039H0.341301C0.152818 3.96037 0 4.11319 0 4.30167C0 5.38545 1.09164 6.14163 2.11082 5.74731V7.44247C1.59023 7.78222 1.27465 8.35753 1.27465 8.99044V9.54134C1.27465 10.5618 2.10482 11.392 3.12531 11.392H7.87471C8.89518 11.392 9.72537 10.5618 9.72537 9.54134V8.99044C9.72537 8.35747 9.40968 7.78212 8.8892 7.44245V5.74731C9.90928 6.14198 11 5.3841 11 4.30165ZM5.50475 2.89552C5.28206 4.12812 4.15018 5.0052 2.88707 4.89515C3.20519 3.71433 4.27995 2.8941 5.50475 2.89552ZM2.79342 5.60223C2.79342 5.59209 2.79366 5.58194 2.79376 5.5718C4.43538 5.73296 5.91211 4.58932 6.18262 2.97999C7.32443 3.27491 8.20658 4.3259 8.20658 5.60223V7.16925C7.8149 7.09848 2.95911 7.13922 2.79342 7.16925V5.60223ZM0.752533 4.64295H2.24862C2.22501 4.72319 2.20296 4.81014 2.18539 4.89262C1.75961 5.35129 1.00023 5.21983 0.752533 4.64295ZM9.04273 8.99044V9.54134H9.04275C9.04275 10.1854 8.51879 10.7094 7.87469 10.7094H3.12529C2.48121 10.7094 1.95723 10.1854 1.95723 9.54134V8.99044C1.95723 8.33439 2.48854 7.8224 3.12529 7.8224H7.87469C8.5102 7.82242 9.04273 8.33323 9.04273 8.99044ZM8.81504 4.89307C8.79719 4.80874 8.77615 4.7253 8.75196 4.64295H10.2475C9.99956 5.22034 9.24047 5.35073 8.81504 4.89307Z" fill="black"/>
<path d="M3.86531 6.61997C4.11467 6.61997 4.31681 6.41783 4.31681 6.16847C4.31681 5.91912 4.11467 5.71698 3.86531 5.71698C3.61596 5.71698 3.41382 5.91912 3.41382 6.16847C3.41382 6.41783 3.61596 6.61997 3.86531 6.61997Z" fill="black"/>
<path d="M7.14852 6.61997C7.39787 6.61997 7.60001 6.41783 7.60001 6.16847C7.60001 5.91912 7.39787 5.71698 7.14852 5.71698C6.89916 5.71698 6.69702 5.91912 6.69702 6.16847C6.69702 6.41783 6.89916 6.61997 7.14852 6.61997Z" fill="black"/>
</g>
<path d="M30.45 22.975C29.8166 22.9083 29.2291 22.7333 28.6875 22.45C28.1458 22.1667 27.677 21.8 27.2812 21.35C26.8854 20.9 26.575 20.3875 26.35 19.8125C26.125 19.2375 26.0125 18.6292 26.0125 17.9875C26.0125 16.6958 26.4354 15.575 27.2812 14.625C28.127 13.675 29.1875 13.1333 30.4625 13V13.75C29.3958 13.9083 28.5125 14.3875 27.8125 15.1875C27.1125 15.9875 26.7625 16.9208 26.7625 17.9875C26.7625 19.0542 27.1104 19.9875 27.8062 20.7875C28.502 21.5875 29.3833 22.0667 30.45 22.225V22.975ZM31 20.5L28.5 18L29.0375 17.4625L30.625 19.05V15.5H31.375V19.05L32.9625 17.4625L33.5 18L31 20.5ZM31.55 22.975V22.225C31.9333 22.175 32.302 22.0771 32.6562 21.9312C33.0104 21.7854 33.3375 21.5917 33.6375 21.35L34.1875 21.9C33.8041 22.1917 33.3895 22.4333 32.9437 22.625C32.4979 22.8167 32.0333 22.9333 31.55 22.975ZM33.65 14.6375C33.3333 14.4125 33 14.2229 32.65 14.0687C32.3 13.9146 31.9333 13.8083 31.55 13.75V13C32.0333 13.0583 32.4958 13.1812 32.9375 13.3687C33.3791 13.5562 33.7958 13.7958 34.1875 14.0875L33.65 14.6375ZM34.9 21.125L34.3625 20.6C34.6041 20.2917 34.7958 19.9604 34.9375 19.6062C35.0791 19.2521 35.175 18.8833 35.225 18.5H35.9875C35.9291 18.9833 35.8083 19.4479 35.625 19.8938C35.4416 20.3396 35.2 20.75 34.9 21.125ZM35.225 17.475C35.175 17.0917 35.0791 16.7208 34.9375 16.3625C34.7958 16.0042 34.6041 15.675 34.3625 15.375L34.95 14.8625C35.2416 15.2458 35.475 15.6583 35.65 16.1C35.825 16.5417 35.9375 17 35.9875 17.475H35.225Z" fill="black"/>
<defs>
<clipPath id="clip0_1219_4286">
<rect width="11" height="11" fill="white" transform="translate(21 1)"/>
</clipPath>
<clipPath id="clip1_1219_4286">
<rect width="11" height="11" fill="white" transform="translate(0 1)"/>
</clipPath>
</defs>
</svg>
