<svg width="16" height="16" viewBox="0 0 16 16" fill="none" xmlns="http://www.w3.org/2000/svg">
<path d="M15.7985 6.37909L13.9063 5.084V1.76987C13.9063 1.51423 13.699 1.30699 13.4434 1.30699H11.189C10.9333 1.30699 10.7261 1.51426 10.7261 1.76987V2.9073C10.7261 2.9073 8.29647 1.24262 8.26466 1.22043C8.11137 1.11361 7.90186 1.10861 7.73859 1.22043L0.201479 6.37909C-0.00947446 6.52348 -0.0634351 6.81153 0.0809306 7.02248C0.170604 7.15352 0.315702 7.224 0.463361 7.224C0.553427 7.224 0.644459 7.19778 0.724381 7.14303L2.09371 6.20581V14.3987C2.09371 14.6543 2.30098 14.8615 2.55659 14.8615H13.4434C13.699 14.8615 13.9062 14.6543 13.9062 14.3987V6.20578L15.2756 7.14301C15.3555 7.19775 15.4465 7.22397 15.5366 7.22397C15.6842 7.22397 15.8293 7.15349 15.919 7.02246C16.0634 6.81156 16.0095 6.52348 15.7985 6.37909ZM8.96081 13.9358H7.0393V9.43487H8.96081V13.9358ZM12.9805 13.9358H9.88656V8.97197C9.88656 8.71634 9.67929 8.5091 9.42369 8.5091H6.5764C6.32076 8.5091 6.11352 8.71636 6.11352 8.97197V13.9358H3.01951V5.57216L8.00005 2.16333L12.9806 5.57221V13.9358H12.9805ZM12.9805 4.45036L11.6519 3.54095V2.23277H12.9805V4.45036Z" fill="black"/>
</svg>
