<svg width="35" height="35" viewBox="0 0 35 35" fill="none" xmlns="http://www.w3.org/2000/svg">
<path d="M7.71582 26.4658H9.09082L22.9346 12.6221L21.5596 11.2471L7.71582 25.0908V26.4658ZM26.9033 11.2783L22.9033 7.27832L24.2158 5.96582C24.57 5.61165 25.0075 5.43457 25.5283 5.43457C26.0492 5.43457 26.4867 5.61165 26.8408 5.96582L28.2158 7.34082C28.57 7.69499 28.7471 8.13249 28.7471 8.65332C28.7471 9.17415 28.57 9.61165 28.2158 9.96582L26.9033 11.2783ZM25.5908 12.5908L9.84082 28.3408H5.84082V24.3408L21.5908 8.59082L25.5908 12.5908ZM22.2471 11.9346L21.5596 11.2471L22.9346 12.6221L22.2471 11.9346Z" fill="white"/>
</svg>
