<svg width="20" height="20" viewBox="0 0 20 20" fill="none" xmlns="http://www.w3.org/2000/svg">
<path d="M8.02087 11.4166L8.77087 9.02079L6.79171 7.47913H9.20837L10 4.99996L10.7709 7.47913H13.2084L11.2292 9.02079L11.9584 11.4166L10 9.93746L8.02087 11.4166ZM5.08337 19.1666V12.8333C4.45837 12.1805 4.01046 11.4652 3.73962 10.6875C3.46879 9.90968 3.33337 9.12496 3.33337 8.33329C3.33337 6.4444 3.97226 4.86107 5.25004 3.58329C6.52782 2.30552 8.11115 1.66663 10 1.66663C11.8889 1.66663 13.4723 2.30552 14.75 3.58329C16.0278 4.86107 16.6667 6.4444 16.6667 8.33329C16.6667 9.12496 16.5313 9.90968 16.2605 10.6875C15.9896 11.4652 15.5417 12.1805 14.9167 12.8333V19.1666L10 17.5208L5.08337 19.1666ZM10 13.75C11.5139 13.75 12.7952 13.2257 13.8438 12.177C14.8924 11.1284 15.4167 9.84718 15.4167 8.33329C15.4167 6.8194 14.8924 5.53815 13.8438 4.48954C12.7952 3.44093 11.5139 2.91663 10 2.91663C8.48615 2.91663 7.2049 3.44093 6.15629 4.48954C5.10768 5.53815 4.58337 6.8194 4.58337 8.33329C4.58337 9.84718 5.10768 11.1284 6.15629 12.177C7.2049 13.2257 8.48615 13.75 10 13.75ZM6.33337 17.4166L10 16.2708L13.6667 17.4166V13.8541C13.1112 14.2569 12.5139 14.5486 11.875 14.7291C11.2362 14.9097 10.6112 15 10 15C9.38893 15 8.76393 14.9097 8.12504 14.7291C7.48615 14.5486 6.88893 14.2569 6.33337 13.8541V17.4166Z" fill="black"/>
</svg>
