<svg width="60" height="60" viewBox="0 0 60 60" fill="none" xmlns="http://www.w3.org/2000/svg">
<path d="M24.7329 40.9976C23.7048 40.9976 22.8713 41.8311 22.8713 42.8592V47.3146C22.8713 48.3426 23.7048 49.1762 24.7329 49.1762C25.761 49.1762 26.5946 48.3426 26.5946 47.3146V42.8592C26.5947 41.8311 25.7611 40.9976 24.7329 40.9976Z" fill="black"/>
<path d="M35.267 40.9976C34.2389 40.9976 33.4053 41.8311 33.4053 42.8592V47.3146C33.4053 48.3426 34.2389 49.1762 35.267 49.1762C36.2951 49.1762 37.1286 48.3426 37.1286 47.3146V42.8592C37.1287 41.8311 36.2952 40.9976 35.267 40.9976Z" fill="black"/>
<path d="M60 18.009C60 16.9809 59.1664 16.1474 58.1384 16.1474H46.1801C45.3518 14.6562 44.3109 13.2711 43.0714 12.0315C43.0273 11.9873 42.9819 11.9452 42.9375 11.9014V5.17805C42.9375 4.14996 42.1039 3.31641 41.0759 3.31641C40.0478 3.31641 39.2142 4.14996 39.2142 5.17805V9.06516C33.4632 5.75027 26.3939 5.85844 20.7858 9.05156V5.17805C20.7858 4.14996 19.9522 3.31641 18.9241 3.31641C17.8961 3.31641 17.0625 4.14996 17.0625 5.17805V11.8645C15.7685 13.1364 14.6809 14.5911 13.8238 16.1476H1.86164C0.833555 16.1475 0 16.9811 0 18.0091C0 23.9207 5.95441 28.0453 11.5136 25.8945V35.1408C8.67398 36.994 6.95262 40.132 6.95262 43.5843V46.5892C6.95262 52.1552 11.4809 56.6836 17.0471 56.6836H42.953C48.5191 56.6836 53.0475 52.1554 53.0475 46.5892V43.5843C53.0475 40.1317 51.3255 36.9934 48.4866 35.1407V25.8945C54.0506 28.0472 60 23.9133 60 18.009ZM30.0259 10.3392C28.8113 17.0625 22.6373 21.8466 15.7477 21.2463C17.4829 14.8055 23.3452 10.3315 30.0259 10.3392ZM15.2368 25.1031C15.2368 25.0478 15.2381 24.9925 15.2387 24.9371C24.193 25.8162 32.2479 19.5782 33.7234 10.8C39.9514 12.4086 44.7632 18.1413 44.7632 25.1031V33.6505C42.6267 33.2645 16.1406 33.4867 15.2368 33.6505V25.1031ZM4.10473 19.8707H12.2652C12.1364 20.3084 12.0162 20.7826 11.9203 21.2325C9.59789 23.7343 5.45578 23.0173 4.10473 19.8707ZM49.324 43.5843V46.5892C49.324 50.1022 46.4661 52.9603 42.9529 52.9603H17.047C13.5339 52.9603 10.6758 50.1023 10.6758 46.5892V43.5843C10.6758 40.0058 13.5738 37.2131 17.047 37.2131H42.9529C46.4193 37.2132 49.324 39.9995 49.324 43.5843ZM48.082 21.235C47.9846 20.775 47.8699 20.3198 47.738 19.8707H55.8953C54.543 23.0201 50.4026 23.7313 48.082 21.235Z" fill="black"/>
<path d="M21.0839 30.6544C22.444 30.6544 23.5466 29.5518 23.5466 28.1917C23.5466 26.8316 22.444 25.729 21.0839 25.729C19.7238 25.729 18.6212 26.8316 18.6212 28.1917C18.6212 29.5518 19.7238 30.6544 21.0839 30.6544Z" fill="black"/>
<path d="M38.9917 30.6544C40.3518 30.6544 41.4544 29.5518 41.4544 28.1917C41.4544 26.8316 40.3518 25.729 38.9917 25.729C37.6316 25.729 36.529 26.8316 36.529 28.1917C36.529 29.5518 37.6316 30.6544 38.9917 30.6544Z" fill="black"/>
<path d="M38.9917 40.6544C40.3518 40.6544 41.4544 39.5518 41.4544 38.1917C41.4544 36.8316 40 33.5 38.9917 33.5C37.9834 33.5 36.529 36.8316 36.529 38.1917C36.529 39.5518 37.6316 40.6544 38.9917 40.6544Z" fill="#C8EFFE"/>
</svg>
