<svg width="23" height="22" viewBox="0 0 23 22" fill="none" xmlns="http://www.w3.org/2000/svg">
<path d="M13.9151 21.9569V20.0122C15.9602 19.4267 17.6311 18.3027 18.9277 16.6402C20.2244 14.9778 20.8727 13.0905 20.8727 10.9785C20.8727 8.86642 20.2296 6.97394 18.9435 5.30103C17.6574 3.62812 15.9813 2.50936 13.9151 1.94476V0C16.5295 0.585518 18.6589 1.89771 20.3034 3.93657C21.9479 5.97542 22.7702 8.32272 22.7702 10.9785C22.7702 13.6342 21.9479 15.9815 20.3034 18.0204C18.6589 20.0592 16.5295 21.3714 13.9151 21.9569ZM0 14.7739V7.24579H5.06004L11.3851 0.972379V21.0473L5.06004 14.7739H0ZM13.2826 16.2795V5.7088C14.4422 6.0643 15.3646 6.73346 16.0498 7.71629C16.735 8.69913 17.0776 9.79698 17.0776 11.0098C17.0776 12.2018 16.7298 13.2892 16.034 14.272C15.3383 15.2548 14.4211 15.924 13.2826 16.2795ZM9.48758 5.74017L5.91393 9.12781H1.89752V12.8919H5.91393L9.48758 16.3109V5.74017Z" fill="black"/>
</svg>
