<svg width="20" height="20" viewBox="0 0 20 20" fill="none" xmlns="http://www.w3.org/2000/svg">
<path d="M0.791626 16.6666V14.7083C0.791626 14.2222 0.916626 13.7812 1.16663 13.3854C1.41663 12.9895 1.76385 12.6944 2.20829 12.5C3.22218 12.0555 4.13538 11.7361 4.94788 11.5416C5.76038 11.3472 6.59718 11.25 7.45829 11.25C8.3194 11.25 9.15274 11.3472 9.95829 11.5416C10.7638 11.7361 11.6736 12.0555 12.6875 12.5C13.1319 12.6944 13.4826 12.9895 13.7395 13.3854C13.9965 13.7812 14.125 14.2222 14.125 14.7083V16.6666H0.791626ZM15.375 16.6666V14.7083C15.375 13.8333 15.1527 13.1145 14.7083 12.552C14.2638 11.9895 13.6805 11.5347 12.9583 11.1875C13.9166 11.2986 14.8194 11.4618 15.6666 11.677C16.5138 11.8923 17.2013 12.1388 17.7291 12.4166C18.1875 12.6805 18.5486 13.0069 18.8125 13.3958C19.0763 13.7847 19.2083 14.2222 19.2083 14.7083V16.6666H15.375ZM7.45829 9.97913C6.54163 9.97913 5.79163 9.68746 5.20829 9.10413C4.62496 8.52079 4.33329 7.77079 4.33329 6.85413C4.33329 5.93746 4.62496 5.18746 5.20829 4.60413C5.79163 4.02079 6.54163 3.72913 7.45829 3.72913C8.37496 3.72913 9.12496 4.02079 9.70829 4.60413C10.2916 5.18746 10.5833 5.93746 10.5833 6.85413C10.5833 7.77079 10.2916 8.52079 9.70829 9.10413C9.12496 9.68746 8.37496 9.97913 7.45829 9.97913ZM14.9583 6.85413C14.9583 7.77079 14.6666 8.52079 14.0833 9.10413C13.5 9.68746 12.75 9.97913 11.8333 9.97913C11.6805 9.97913 11.5104 9.96871 11.3229 9.94788C11.1354 9.92704 10.9652 9.88885 10.8125 9.83329C11.1458 9.48607 11.3993 9.05899 11.5729 8.55204C11.7465 8.0451 11.8333 7.47913 11.8333 6.85413C11.8333 6.22913 11.7465 5.67704 11.5729 5.19788C11.3993 4.71871 11.1458 4.27774 10.8125 3.87496C10.9652 3.83329 11.1354 3.79857 11.3229 3.77079C11.5104 3.74302 11.6805 3.72913 11.8333 3.72913C12.75 3.72913 13.5 4.02079 14.0833 4.60413C14.6666 5.18746 14.9583 5.93746 14.9583 6.85413ZM2.04163 15.4166H12.875V14.7083C12.875 14.4861 12.809 14.2708 12.677 14.0625C12.5451 13.8541 12.3819 13.7083 12.1875 13.625C11.1875 13.1805 10.3472 12.8819 9.66663 12.7291C8.98607 12.5763 8.24996 12.5 7.45829 12.5C6.66663 12.5 5.92704 12.5763 5.23954 12.7291C4.55204 12.8819 3.70829 13.1805 2.70829 13.625C2.51385 13.7083 2.35413 13.8541 2.22913 14.0625C2.10413 14.2708 2.04163 14.4861 2.04163 14.7083V15.4166ZM7.45829 8.72913C7.99996 8.72913 8.44788 8.55204 8.80204 8.19788C9.15621 7.84371 9.33329 7.39579 9.33329 6.85413C9.33329 6.31246 9.15621 5.86454 8.80204 5.51038C8.44788 5.15621 7.99996 4.97913 7.45829 4.97913C6.91663 4.97913 6.46871 5.15621 6.11454 5.51038C5.76038 5.86454 5.58329 6.31246 5.58329 6.85413C5.58329 7.39579 5.76038 7.84371 6.11454 8.19788C6.46871 8.55204 6.91663 8.72913 7.45829 8.72913Z" fill="black"/>
</svg>
